# xmcd
#
# Track frame offsets:
#	150
#	11579
#	24114
#	39147
#	51098
#	65158
#	76310
#	87684
#	97768
#	111992
#	122531
#	132239
#	143693
#	160038
#	171088
#	180978
#	194752
#	208860
#
# Disc length: 3076 seconds
#
# Revision: 1
# Processed by: cddbd v1.5.2PL0 Copyright (c) Steve Scherf et al.
# Submitted via: audiograbber 1.83.01
#
DISCID=ea0c0212
DTITLE=Various Artist - Country club collection [CD 2/5)
DYEAR=2003
DGENRE=Country
TTITLE0=Skeeter Davis - Gonna Get Along
TTITLE1=Wanda Jackson - Crazy
TTITLE2=Lynn Anderson - Desperado
TTITLE3=Crystal Gayle - Don't lt Make My Browns Eyes Blue
TTITLE4=Billie Jo Spears - Mr. Walker, It's All Over
TTITLE5=Jean Sheppard - A Satisfied Mind
TTITLE6=Donna Fargo - Superman
TTITLE7=Susan Raye - Pitty Pitty Patte
TTITLE8=Margo Smith - It Only Hurts For A Little While
TTITLE9=Barbara Fairchild - Kid Stuff
TTITLE10=Rose Maddox - Sing A Little Song Of Heartache
TTITLE11=Patsy Cline - The Heart You Break May Be Your Own
TTITLE12=Janie Fricke - It Ain't Easy Being Easy
TTITLE13=Sandy Posey - I Take lt Back
TTITLE14=Brenda Lee - I'm Sorry
TTITLE15=Patti Page - Tennessee Waltz
TTITLE16=Rita Remmington - Angel Of The Morning
TTITLE17=Connie Francis - Medley Fools Paradise/Love's Made A Fool Of You/Not F
TTITLE17=ade Away
EXTD=
EXTT0=
EXTT1=
EXTT2=
EXTT3=
EXTT4=
EXTT5=
EXTT6=
EXTT7=
EXTT8=
EXTT9=
EXTT10=
EXTT11=
EXTT12=
EXTT13=
EXTT14=
EXTT15=
EXTT16=
EXTT17=
PLAYORDER=
